HIERARCHY
ROOT Hips
{
  OFFSET 5.84602e-005 68.8428 3.50346
  CHANNELS 6 Xposition Yposition Zposition Zrotation Xrotation Yrotation
  JOINT Spine
  {
    OFFSET 0 8.597 -4.6522
    CHANNELS 3 Zrotation Xrotation Yrotation
    JOINT Spine1
    {
      OFFSET 0 7.8454 0.4098
      CHANNELS 3 Zrotation Xrotation Yrotation
      JOINT Spine2
      {
        OFFSET 0 9.7078 -2.1609
        CHANNELS 3 Zrotation Xrotation Yrotation
        JOINT Neck
        {
          OFFSET 0 21.8761 -0.4549
          CHANNELS 3 Zrotation Xrotation Yrotation
          JOINT Head
          {
            OFFSET 0 12.3537 3.3602
            CHANNELS 3 Zrotation Xrotation Yrotation
            End Site
            {
              OFFSET 0.0001 18.9506 0.5657
            }
          }
        }
        JOINT LeftShoulder
        {
          OFFSET 2.2086 21.1115 7.2329
          CHANNELS 3 Zrotation Xrotation Yrotation
          JOINT LeftArm
          {
            OFFSET 13.1193 3.0282 -4.8998
            CHANNELS 3 Zrotation Xrotation Yrotation
            JOINT LeftForeArm
            {
              OFFSET 27.4081 -0.0973053 -0.2375
              CHANNELS 3 Zrotation Xrotation Yrotation
              JOINT LeftHand
              {
                OFFSET 22.8641 0.0662994 -0.1369
                CHANNELS 3 Zrotation Xrotation Yrotation
                JOINT LeftHandIndex1
                {
                  OFFSET 8.8614 0.775009 2.4612
                  CHANNELS 3 Zrotation Xrotation Yrotation
                  JOINT LeftHandIndex2
                  {
                    OFFSET 3.3146 -0.808304 0.5841
                    CHANNELS 3 Zrotation Xrotation Yrotation
                    JOINT LeftHandIndex3
                    {
                      OFFSET 2.2628 -0.552002 0.3989
                      CHANNELS 3 Zrotation Xrotation Yrotation
                      End Site
                      {
                        OFFSET 1.6102 -0.4807 0.2612
                      }
                    }
                  }
                }
                JOINT LeftHandMiddle1
                {
                  OFFSET 8.9937 0.895004 0.2143
                  CHANNELS 3 Zrotation Xrotation Yrotation
                  JOINT LeftHandMiddle2
                  {
                    OFFSET 4.0984 0.0113983 -0.0242
                    CHANNELS 3 Zrotation Xrotation Yrotation
                    JOINT LeftHandMiddle3
                    {
                      OFFSET 2.2716 0.00689697 -0.0138001
                      CHANNELS 3 Zrotation Xrotation Yrotation
                      End Site
                      {
                        OFFSET 2.0404 -0.1441 0.0027
                      }
                    }
                  }
                }
                JOINT LeftHandRing1
                {
                  OFFSET 8.5234 0.597198 -2.0164
                  CHANNELS 3 Zrotation Xrotation Yrotation
                  JOINT LeftHandRing2
                  {
                    OFFSET 3.7188 -0.188293 -0.2328
                    CHANNELS 3 Zrotation Xrotation Yrotation
                    JOINT LeftHandRing3
                    {
                      OFFSET 2.1191 -0.106598 -0.1332
                      CHANNELS 3 Zrotation Xrotation Yrotation
                      End Site
                      {
                        OFFSET 1.8737 -0.2304 -0.0886
                      }
                    }
                  }
                }
                JOINT LeftHandPinky1
                {
                  OFFSET 7.9094 -0.601089 -3.4825
                  CHANNELS 3 Zrotation Xrotation Yrotation
                  JOINT LeftHandPinky2
                  {
                    OFFSET 2.2874 -0.477005 -0.6314
                    CHANNELS 3 Zrotation Xrotation Yrotation
                    JOINT LeftHandPinky3
                    {
                      OFFSET 1.6774 -0.349396 -0.4633
                      CHANNELS 3 Zrotation Xrotation Yrotation
                      End Site
                      {
                        OFFSET 1.4888 -0.4091 -0.3416
                      }
                    }
                  }
                }
                JOINT LeftHandThumb1
                {
                  OFFSET 1.833 -1.3875 1.3896
                  CHANNELS 3 Zrotation Xrotation Yrotation
                  JOINT LeftHandThumb2
                  {
                    OFFSET 3.4129 -1.121 2.5732
                    CHANNELS 3 Zrotation Xrotation Yrotation
                    JOINT LeftHandThumb3
                    {
                      OFFSET 2.2474 -0.804199 1.6192
                      CHANNELS 3 Zrotation Xrotation Yrotation
                      End Site
                      {
                        OFFSET 1.6527 -0.5689 1.1317
                      }
                    }
                  }
                }
              }
            }
          }
        }
        JOINT RightShoulder
        {
          OFFSET -2.2086 21.1115 7.2329
          CHANNELS 3 Zrotation Xrotation Yrotation
          JOINT RightArm
          {
            OFFSET -13.1216 3.0287 -4.9007
            CHANNELS 3 Zrotation Xrotation Yrotation
            JOINT RightForeArm
            {
              OFFSET -27.4081 -0.0973053 -0.2375
              CHANNELS 3 Zrotation Xrotation Yrotation
              JOINT RightHand
              {
                OFFSET -22.8641 0.0664063 -0.1369
                CHANNELS 3 Zrotation Xrotation Yrotation
                JOINT RightHandIndex1
                {
                  OFFSET -8.8614 0.774994 2.4612
                  CHANNELS 3 Zrotation Xrotation Yrotation
                  JOINT RightHandIndex2
                  {
                    OFFSET -3.3146 -0.808304 0.5841
                    CHANNELS 3 Zrotation Xrotation Yrotation
                    JOINT RightHandIndex3
                    {
                      OFFSET -2.2628 -0.552002 0.3989
                      CHANNELS 3 Zrotation Xrotation Yrotation
                      End Site
                      {
                        OFFSET -1.6102 -0.4807 0.2612
                      }
                    }
                  }
                }
                JOINT RightHandMiddle1
                {
                  OFFSET -8.9937 0.894989 0.2143
                  CHANNELS 3 Zrotation Xrotation Yrotation
                  JOINT RightHandMiddle2
                  {
                    OFFSET -4.0984 0.0113983 -0.0242
                    CHANNELS 3 Zrotation Xrotation Yrotation
                    JOINT RightHandMiddle3
                    {
                      OFFSET -2.2716 0.00691223 -0.0138001
                      CHANNELS 3 Zrotation Xrotation Yrotation
                      End Site
                      {
                        OFFSET -2.0404 -0.1441 0.0027
                      }
                    }
                  }
                }
                JOINT RightHandRing1
                {
                  OFFSET -8.5234 0.597198 -2.0164
                  CHANNELS 3 Zrotation Xrotation Yrotation
                  JOINT RightHandRing2
                  {
                    OFFSET -3.7188 -0.188309 -0.2328
                    CHANNELS 3 Zrotation Xrotation Yrotation
                    JOINT RightHandRing3
                    {
                      OFFSET -2.1191 -0.106598 -0.1332
                      CHANNELS 3 Zrotation Xrotation Yrotation
                      End Site
                      {
                        OFFSET -1.8737 -0.2304 -0.0886
                      }
                    }
                  }
                }
                JOINT RightHandPinky1
                {
                  OFFSET -7.9094 -0.601105 -3.4825
                  CHANNELS 3 Zrotation Xrotation Yrotation
                  JOINT RightHandPinky2
                  {
                    OFFSET -2.2874 -0.477005 -0.6314
                    CHANNELS 3 Zrotation Xrotation Yrotation
                    JOINT RightHandPinky3
                    {
                      OFFSET -1.6774 -0.349396 -0.4633
                      CHANNELS 3 Zrotation Xrotation Yrotation
                      End Site
                      {
                        OFFSET -1.4888 -0.4091 -0.3416
                      }
                    }
                  }
                }
                JOINT RightHandThumb1
                {
                  OFFSET -1.833 -1.38751 1.3896
                  CHANNELS 3 Zrotation Xrotation Yrotation
                  JOINT RightHandThumb2
                  {
                    OFFSET -3.41299 -1.12099 2.5732
                    CHANNELS 3 Zrotation Xrotation Yrotation
                    JOINT RightHandThumb3
                    {
                      OFFSET -2.24741 -0.804108 1.6192
                      CHANNELS 3 Zrotation Xrotation Yrotation
                      End Site
                      {
                        OFFSET -1.6527 -0.5689 1.1317
                      }
                    }
                  }
                }
              }
            }
          }
        }
      }
    }
  }
  JOINT RightUpLeg
  {
    OFFSET -9.1966 3.8861 -0.7581
    CHANNELS 3 Zrotation Xrotation Yrotation
    JOINT RightLeg
    {
      OFFSET -0.7359 -41.0265 0
      CHANNELS 3 Zrotation Xrotation Yrotation
      JOINT RightFoot
      {
        OFFSET 0 -40.2855 0
        CHANNELS 3 Zrotation Xrotation Yrotation
        JOINT RightToeBase
        {
          OFFSET 0 -5.6122 11.7359
          CHANNELS 3 Zrotation Xrotation Yrotation
          End Site
          {
            OFFSET 0 0 7.8731
          }
        }
      }
    }
  }
  JOINT LeftUpLeg
  {
    OFFSET 9.1965 3.8864 -0.7581
    CHANNELS 3 Zrotation Xrotation Yrotation
    JOINT LeftLeg
    {
      OFFSET 0.7359 -41.0268 0
      CHANNELS 3 Zrotation Xrotation Yrotation
      JOINT LeftFoot
      {
        OFFSET 0 -40.2855 0
        CHANNELS 3 Zrotation Xrotation Yrotation
        JOINT LeftToeBase
        {
          OFFSET 0 -5.6122 11.7359
          CHANNELS 3 Zrotation Xrotation Yrotation
          End Site
          {
            OFFSET 0 0 7.8731
          }
        }
      }
    }
  }
}
MOTION
Frames:	4
Frame Time:	0.0333333
-0.0818772 0.191139 77.8404 -180 -89.9981 -180 -0.124866 1.83719 -0.145049 -0.245264 3.67468 -0.286311 -0.245264 3.67468 -0.286311 4.5319e-006 49.6479 -3.36939e-006 1.0029e-007 -43.7997 -1.6082e-007 -22.6436 -9.78469 13.9335 -57.8203 6.81452 -42.919 -18.9039 13.1732 -94.1435 -55.1445 7.64071 24.4867 1.31198e-014 -9.54166e-015 1.03368e-014 -3.34942e-008 3.30542e-006 -9.40741e-008 -2.98177e-015 0 -5.96354e-016 1.31198e-014 -9.54166e-015 1.03368e-014 -0.0146638 -8.6814e-005 -3.30557e-006 6.36111e-015 0 7.95139e-016 1.31198e-014 -9.54166e-015 1.03368e-014 -0.0187561 -0.00117457 5.8716e-005 -6.55989e-015 -3.18055e-015 5.96354e-016 1.31198e-014 -9.54166e-015 1.03368e-014 -0.0122852 -0.00325762 0.00068235 -9.93923e-016 6.36111e-015 9.14409e-015 1.31198e-014 -9.54166e-015 1.03368e-014 -3.34942e-008 3.30542e-006 -9.40741e-008 -2.98177e-015 0 -5.96354e-016 15.7674 -8.23473 -5.87912 59.4837 9.03585 27.1524 21.7789 -4.6044 74.1821 42.9178 18.6931 9.29277 -1.59028e-015 -3.18055e-015 -0 3.44283e-006 3.05527e-007 -9.01893e-007 -2.3059e-014 6.36111e-015 -6.36111e-015 -1.59028e-015 -3.18055e-015 -0 0.0150235 -8.86032e-005 1.59595e-006 -9.54166e-015 -3.18055e-015 -3.18055e-015 -1.59028e-015 -3.18055e-015 -0 0.0189701 -0.00118874 -5.84269e-005 1.81808e-006 4.87469e-007 1.44061e-007 -1.59028e-015 -3.18055e-015 -0 0.0122017 -0.00322851 -0.000671827 1.81893e-006 4.87726e-007 1.44135e-007 -1.59028e-015 -3.18055e-015 -0 3.44283e-006 3.05527e-007 -9.01893e-007 -2.3059e-014 6.36111e-015 -6.36111e-015 -7.93857 -14.2838 -5.12685 2.10225 43.0735 -3.21677 -10.1318 14.9567 1.97455 -1.29507e-006 8.36357e-006 4.41232e-007 15.0085 1.44382 6.81212 1.8783 7.23706 0.0554761 8.82461 10.9735 -4.48162 -9.51862e-007 -1.89621e-007 -1.37143e-006 
-0.0820152 0.191363 77.8404 -180 -89.9981 -180 -0.124866 1.83719 -0.145049 -0.245264 3.67468 -0.286311 -0.245264 3.67468 -0.286311 6.39401e-006 49.4146 -4.98608e-006 9.59224e-008 -42.9959 -3.68797e-008 -22.6436 -9.78469 13.9335 -57.8203 6.81453 -42.919 -18.8917 13.3125 -94.2383 -54.654 7.64067 24.4868 -2.85569e-007 2.18989e-007 7.71735e-007 -8.34896e-015 0 -0 -5.71139e-007 4.37978e-007 1.54347e-006 -2.85569e-007 2.18989e-007 7.71735e-007 -0.01458 -8.6498e-005 8.10675e-007 -5.71122e-007 4.37782e-007 1.54353e-006 -2.85569e-007 2.18989e-007 7.71735e-007 -0.0187741 -0.0011781 6.20868e-005 -5.71102e-007 4.37727e-007 1.54355e-006 -2.85569e-007 2.18989e-007 7.71735e-007 -0.0122526 -0.0032482 0.000672818 -5.71079e-007 4.3782e-007 1.54353e-006 -2.85569e-007 2.18989e-007 7.71735e-007 -8.34896e-015 0 -0 -5.71139e-007 4.37978e-007 1.54347e-006 15.7674 -8.23473 -5.87912 59.4837 9.03584 27.1524 21.7996 -4.52015 74.6144 42.6941 18.6601 9.3056 -3.27718e-006 -1.11587e-009 1.1171e-007 3.44367e-006 3.02453e-007 -8.89382e-007 -3.27718e-006 -1.11587e-009 1.1171e-007 -3.27718e-006 -1.11587e-009 1.1171e-007 0.0149595 -9.08796e-005 -3.595e-008 -3.27734e-006 -1.10023e-009 1.11713e-007 -3.27718e-006 -1.11587e-009 1.1171e-007 0.0189987 -0.00118995 -6.15909e-005 -3.27739e-006 -1.08577e-009 1.11745e-007 -3.27718e-006 -1.11587e-009 1.1171e-007 0.0122451 -0.00323916 -0.000674546 -1.69283e-006 1.10926e-006 4.86348e-007 -3.27718e-006 -1.11587e-009 1.1171e-007 3.44367e-006 3.02453e-007 -8.89382e-007 -3.27718e-006 -1.11587e-009 1.1171e-007 -7.76117 -14.3112 -4.75674 2.10259 43.0772 -3.21296 -9.88026 15.0088 1.60489 6.40479e-007 2.26099e-006 -3.20704e-007 14.9584 1.48926 6.34412 1.87834 7.2474 0.0587989 8.70093 11.0847 -4.01368 -3.18055e-015 6.36111e-015 1.59028e-015 
-0.0821576 0.19159 77.8405 -180 -89.9981 -180 -0.124866 1.83719 -0.145049 -0.245264 3.67468 -0.286311 -0.245264 3.67468 -0.286311 2.72373e-006 49.1813 -1.55074e-006 1.49491e-007 -42.1912 1.44476e-007 -22.6436 -9.78469 13.9335 -57.8203 6.81452 -42.919 -18.8792 13.4517 -94.3332 -54.1633 7.64061 24.4868 8.74653e-015 9.54166e-015 -7.95139e-016 5.96354e-015 -3.18055e-015 4.77083e-015 -3.57812e-015 6.36111e-015 -1.59028e-015 8.74653e-015 9.54166e-015 -7.95139e-016 -0.0145654 -8.74592e-005 9.6543e-007 -7.95139e-016 0 -6.36111e-015 8.74653e-015 9.54166e-015 -7.95139e-016 -0.0187329 -0.00117318 5.84981e-005 -4.96448e-007 -1.50124e-006 5.08e-008 8.74653e-015 9.54166e-015 -7.95139e-016 -0.0122697 -0.00325282 0.000679947 -4.97269e-007 -1.50097e-006 5.08155e-008 8.74653e-015 9.54166e-015 -7.95139e-016 5.96354e-015 -3.18055e-015 4.77083e-015 -3.57812e-015 6.36111e-015 -1.59028e-015 15.7674 -8.23473 -5.87912 59.4837 9.03584 27.1524 21.8197 -4.43575 75.0467 42.4704 18.6271 9.31829 -4.77083e-015 -3.18055e-015 -0 -7.95139e-016 3.18055e-015 -0 -6.36111e-015 -3.18055e-015 -0 -4.77083e-015 -3.18055e-015 -0 0.0149529 -9.07801e-005 5.31895e-007 -1.59028e-015 -6.36111e-015 -0 -4.77083e-015 -3.18055e-015 -0 0.0190138 -0.00119162 -5.82113e-005 1.86607e-006 4.04436e-007 8.79437e-008 -4.77083e-015 -3.18055e-015 -0 0.0122302 -0.00323771 -0.000675007 -4.77083e-015 2.54444e-014 -0 -4.77083e-015 -3.18055e-015 -0 -7.95139e-016 3.18055e-015 -0 -6.36111e-015 -3.18055e-015 -0 -7.5835 -14.3376 -4.38641 2.10293 43.0807 -3.20909 -9.62827 15.0595 1.23476 -1.56211e-006 -1.91633e-007 6.59241e-007 14.9087 1.53452 5.87595 1.87839 7.25898 0.0621124 8.57617 11.1943 -3.54502 6.86483e-007 -1.5218e-007 -4.74965e-007 
-0.0823026 0.191819 77.8405 -180 -89.9981 -180 -0.124865 1.83719 -0.145049 -0.245264 3.67468 -0.286311 -0.245264 3.67468 -0.286311 3.45597e-006 48.948 -2.06374e-006 -2.74697e-008 -41.3855 1.43432e-007 -22.6436 -9.78469 13.9335 -57.8203 6.81453 -42.919 -18.8665 13.5909 -94.4283 -53.6724 7.64059 24.4869 5.43312e-007 1.49134e-006 -5.67404e-008 5.69825e-007 -4.47631e-007 -1.54152e-006 -5.43312e-007 -1.49134e-006 5.67406e-008 5.43312e-007 1.49134e-006 -5.67404e-008 -0.0146191 -9.04516e-005 -2.1015e-006 2.5842e-015 9.54166e-015 -1.59028e-015 5.43312e-007 1.49134e-006 -5.67404e-008 -0.0187596 -0.00118023 5.93677e-005 -5.40951e-007 -1.4912e-006 5.64944e-008 5.43312e-007 1.49134e-006 -5.67404e-008 -0.0122164 -0.00323531 0.000674337 -5.76476e-015 3.18055e-015 8.34896e-015 5.43312e-007 1.49134e-006 -5.67404e-008 5.69825e-007 -4.47631e-007 -1.54152e-006 -5.43312e-007 -1.49134e-006 5.67406e-008 15.7674 -8.23473 -5.87912 59.4837 9.03583 27.1524 21.8392 -4.35114 75.479 42.2467 18.594 9.33083 7.95139e-016 3.18055e-015 6.36111e-015 1.59028e-014 0 6.36111e-015 7.95139e-015 6.36111e-015 -3.18055e-015 7.95139e-016 3.18055e-015 6.36111e-015 0.0150152 -9.23742e-005 2.27473e-007 5.56597e-015 0 9.54166e-015 7.95139e-016 3.18055e-015 6.36111e-015 0.0190156 -0.00119285 -5.9632e-005 2.38542e-015 0 -3.18055e-015 7.95139e-016 3.18055e-015 6.36111e-015 0.0123179 -0.00326033 -0.0006781 6.36111e-015 3.18055e-015 -0 7.95139e-016 3.18055e-015 6.36111e-015 1.59028e-014 0 6.36111e-015 7.95139e-015 6.36111e-015 -3.18055e-015 -7.40558 -14.3628 -4.01586 2.10327 43.0845 -3.20518 -9.37579 15.1084 0.864151 -8.74566e-007 2.15274e-006 -6.1295e-007 14.8592 1.58104 5.40766 1.87842 7.26879 0.0653179 8.45037 11.3039 -3.07579 8.87257e-007 8.79809e-006 -4.29341e-006 
